<?xml version="1.0" encoding="UTF-8"?>
<svg id="Layer_2" data-name="Layer 2" xmlns="http://www.w3.org/2000/svg" viewBox="0 0 66.44 93.98">
  <defs>
    <style>
      .cls-1 {
        fill: #ffb600;
      }

      .cls-2 {
        fill: #1d1d1b;
      }
    </style>
  </defs>
  <g id="Layer_1-2" data-name="Layer 1">
    <g id="lAAEjM">
      <g>
        <path class="cls-1" d="M33.23,89.32c-1.51-2.37-3.03-4.74-4.55-7.1-7.26-11.31-14.77-23.01-21.56-34.86C.35,35.55,3.2,19.79,13.73,10.69c5.4-4.66,11.64-7.11,18.54-7.27,.26,0,.52,0,.77,0,14.84,0,27.27,10.5,29.57,24.97,1.13,7.15-.07,13.63-3.67,19.78-7.32,12.51-15.28,24.92-22.98,36.93l-1.56,2.43c-.38,.6-.78,1.19-1.17,1.8Zm-.2-71.69c-8.54,.09-15.44,7.14-15.37,15.73,.07,8.56,7.05,15.52,15.55,15.52,0,0,.11,0,.11,0,8.55-.06,15.51-7.09,15.51-15.66,0-4.2-1.62-8.12-4.56-11.05-2.94-2.92-6.87-4.53-11.07-4.53h-.17Z"/>
        <path class="cls-2" d="M33.05,1.71v3.42c13.99,0,25.71,9.9,27.88,23.53,1.07,6.75-.06,12.85-3.46,18.65-7.29,12.46-15.23,24.84-22.91,36.82l-1.31,2.05c-1.04-1.62-2.07-3.23-3.11-4.85-7.26-11.3-14.76-22.99-21.53-34.81-6.37-11.12-3.68-25.96,6.25-34.52,5.1-4.4,10.97-6.7,17.46-6.86,.24,0,.49,0,.73,0V1.71m.16,48.87h.12c9.48-.07,17.2-7.86,17.2-17.37,0-4.66-1.8-9.01-5.06-12.26-3.26-3.24-7.62-5.03-12.28-5.03h-.19c-9.49,.1-17.14,7.93-17.06,17.45,.08,9.49,7.82,17.21,17.26,17.21m-.16-48.87c-.27,0-.54,0-.81,0-7.38,.17-13.98,2.82-19.62,7.68C1.55,18.95-1.68,35.43,5.64,48.21c8.41,14.68,17.72,28.81,26.82,43.07,.19,.3,.46,.54,.86,.99,.89-1.34,1.72-2.58,2.53-3.83,8.35-13.04,16.75-26.05,24.57-39.42,3.81-6.51,5.06-13.46,3.88-20.91C62,13.65,49.57,1.71,33.05,1.71h0Zm.16,45.46c-7.52,0-13.78-6.24-13.84-13.82-.06-7.7,6.02-13.93,13.68-14,.05,0,.1,0,.15,0,7.75,0,13.93,6.14,13.92,13.88,0,7.63-6.21,13.9-13.81,13.95-.03,0-.07,0-.1,0h0Z"/>
      </g>
    </g>
  </g>
</svg>