<?xml version="1.0" encoding="UTF-8"?>
<svg id="Layer_2" data-name="Layer 2" xmlns="http://www.w3.org/2000/svg" viewBox="0 0 68.17 68.16">
  <defs>
    <style>
      .cls-1 {
        fill: #fab41e;
      }
    </style>
  </defs>
  <g id="Layer_2-2" data-name="Layer 2">
    <g id="eyYQr6">
      <g>
        <path class="cls-1" d="m0,33.39c.7-.8,1.54-1.09,2.64-1.06,3.02.08,6.03.03,9.05.03.26,0,.53-.01.79,0,1.06.07,1.78.7,1.85,1.59.06.87-.62,1.69-1.6,1.88-.36.07-.74.05-1.11.05-2.96,0-5.93-.04-8.89.02-1.16.02-2.05-.31-2.73-1.24v-1.28Z"/>
        <path class="cls-1" d="m33.5,68.16c-.93-.67-1.26-1.57-1.24-2.73.06-2.96.02-5.93.02-8.89,0-.58-.03-1.17.26-1.71.37-.7,1.13-1.11,1.83-.98.72.13,1.31.74,1.41,1.51.05.37.03.74.03,1.11,0,3.02-.05,6.04.03,9.05.03,1.09-.27,1.93-1.06,2.64h-1.28Z"/>
        <path class="cls-1" d="m34.07,18.01c8.8-.17,16.12,7.3,16.13,16.06,0,7.79-6.09,15.99-15.98,16.07-9.06.08-16.25-7.04-16.19-16.17.06-9.88,8.24-16.14,16.05-15.97Zm12.56,15.99c-.03-6.96-5.66-12.53-12.63-12.46-6.94.06-12.53,5.74-12.46,12.67.07,6.84,5.79,12.48,12.58,12.41,6.99-.07,12.53-5.66,12.5-12.62Z"/>
        <path class="cls-1" d="m35.82,7.22c0,1.54,0,3.08,0,4.62,0,.37.01.75-.06,1.11-.14.71-.72,1.2-1.43,1.3-.72.09-1.39-.23-1.74-.86-.3-.53-.31-1.11-.31-1.7,0-3.03,0-6.05,0-9.08,0-.48-.02-.95.18-1.41.34-.81,1.11-1.3,1.87-1.18.81.13,1.44.74,1.46,1.63.05,1.86.01,3.72.01,5.57h.01Z"/>
        <path class="cls-1" d="m61.11,32.35c1.7,0,3.4.06,5.1-.02,1.01-.05,1.88.64,1.96,1.67.07.92-.72,1.72-1.82,1.86-.37.05-.74.02-1.11.02-2.81,0-5.63,0-8.44,0-.42,0-.86.03-1.27-.05-1.05-.18-1.66-.9-1.61-1.84.05-.97.68-1.6,1.79-1.63,1.8-.04,3.61-.01,5.41-.01h0Z"/>
        <path class="cls-1" d="m16.07,17.82c-.49.03-.94-.21-1.34-.61-2.29-2.29-4.6-4.57-6.86-6.89-.79-.81-.8-1.9-.17-2.58.7-.74,1.81-.74,2.68.11,2.32,2.27,4.59,4.58,6.88,6.87.63.63.8,1.36.43,2.18-.3.66-.86.91-1.63.91Z"/>
        <path class="cls-1" d="m60.95,59.26c-.05,1.36-1.46,2.1-2.67,1.39-.23-.13-.42-.32-.61-.51-2.18-2.18-4.36-4.35-6.54-6.54-.19-.19-.38-.38-.51-.61-.43-.68-.33-1.69.19-2.22.56-.56,1.47-.67,2.21-.23.18.11.34.25.49.4,2.26,2.25,4.51,4.51,6.77,6.76.43.43.74.9.69,1.54Z"/>
        <path class="cls-1" d="m60.96,8.98c.04.47-.21.92-.6,1.31-2.33,2.33-4.64,4.68-6.99,6.98-.78.76-1.93.73-2.58.06-.65-.67-.64-1.78.14-2.58,2.31-2.35,4.65-4.66,6.98-6.99.59-.59,1.3-.74,2.05-.4.62.28.98.8,1,1.62Z"/>
        <path class="cls-1" d="m17.9,52.14c.03.37-.21.83-.6,1.22-2.33,2.33-4.64,4.68-7,6.98-.78.77-1.92.74-2.58.07-.65-.67-.65-1.79.13-2.58,2.31-2.35,4.65-4.67,6.98-6.99.58-.58,1.29-.74,2.05-.41.63.28.97.8,1.02,1.71Z"/>
      </g>
    </g>
  </g>
</svg>