<?xml version="1.0" encoding="UTF-8"?>
<svg id="Layer_2" data-name="Layer 2" xmlns="http://www.w3.org/2000/svg" viewBox="0 0 53.77 49.17">
  <defs>
    <style>
      .cls-1 {
        fill: #fab41e;
      }
    </style>
  </defs>
  <g id="Layer_2-2" data-name="Layer 2">
    <g id="rfaIdA">
      <g>
        <path class="cls-1" d="m53.77,27.74c-.15.16-.09.37-.13.55-.68,2.77-2.37,4.57-5.11,5.37-.13.04-.27.07-.43.12-1.76,5.17-4.93,9.24-9.59,12.11-3.78,2.33-7.91,3.41-12.34,3.26-4.68-.16-8.91-1.65-12.65-4.46-3.75-2.81-6.34-6.47-7.83-10.92-1.82-.4-3.31-1.32-4.39-2.84C.39,29.67-.03,28.25,0,26.69c.06-2.68,1.81-5.79,5.69-6.7.88-2.66,2.21-5.1,4.01-7.28,1.79-2.16,3.92-3.92,6.42-5.33C12.81,6.01,11.04,3.61,10.83.04h3.12c.09.16.08.36.1.54.19,1.89,1.82,3.92,4.47,4.03.33.01.65,0,1.08,0-.97-1.41-1.48-2.89-1.51-4.51.39-.11,2.31-.13,3.11-.05.03.19.07.4.1.6.21,1.88,1.89,3.92,4.58,3.96.44,0,.88,0,1.31,0,6.66.16,12.19,2.77,16.6,7.74,1.85,2.09,3.21,4.49,4.13,7.12.06.18.08.38.26.54,1.01.21,1.97.62,2.81,1.27,1.5,1.15,2.41,2.65,2.7,4.52.01.09.02.17.09.24v1.68Zm-45.67,3.05c.1.36.2.72.3,1.07,1.17,4.21,3.46,7.67,6.95,10.28,4.46,3.33,9.47,4.54,14.96,3.56,4.39-.78,8.05-2.91,11-6.25,2.04-2.31,3.39-4.99,4.16-7.97.06-.23.08-.48.23-.69.48-.03.95-.04,1.42-.08,2.49-.23,4.09-2.74,3.27-5.09-.53-1.52-1.92-2.51-3.61-2.57-.36-.01-.73,0-1.04,0-.15-.17-.15-.31-.19-.45-.4-1.56-.93-3.08-1.68-4.51-2.06-3.89-5.09-6.76-9.09-8.6-.09-.04-.2-.17-.32-.05,1.76,4.16.15,7.92-2.32,9.93-2.72,2.22-6.53,2.49-9.52.69-2.52-1.52-4.41-4.89-3.97-7.09.78-.08,2.7-.06,3.07.05,0,.08.01.17.02.25.15,2.39,2,4.58,4.73,4.8,3.21.26,5.65-2.36,5.57-5.27-.07-2.69-2.26-4.93-4.95-5.01-1.26-.04-2.51.08-3.76.32-3.59.69-6.74,2.27-9.43,4.75-2.8,2.58-4.65,5.74-5.6,9.42-.06.25-.08.52-.24.74-.55.05-1.09,0-1.63.09-1.95.31-3.33,1.96-3.27,3.94.05,1.88,1.57,3.49,3.47,3.67.49.04.97.06,1.49.09Z"/>
        <path class="cls-1" d="m31.78,33.97c.89.53,1.76,1.04,2.63,1.55-.77,1.72-3.43,4.3-7.3,4.36-3.38.05-5.96-1.46-7.83-4.31.93-.55,1.81-1.07,2.7-1.59,2.43,3.72,7.44,3.63,9.8,0Z"/>
        <path class="cls-1" d="m15.76,27.51h-3c-.3-1.18.59-3.12,1.95-4.1,1.8-1.31,3.71-1.44,5.67-.4,1.68.9,2.78,2.85,2.59,4.49h-3.05c-.1-.67-.34-1.27-.93-1.66-.38-.25-.79-.36-1.24-.34-1.04.05-1.65.66-1.98,2.01Z"/>
        <path class="cls-1" d="m41.05,27.51h-3.05c-.09-.71-.36-1.31-.98-1.7-.38-.24-.8-.33-1.25-.3-1.02.07-1.65.72-1.92,1.99h-3.1c.05-1.88.83-3.34,2.38-4.32,1.79-1.14,3.67-1.14,5.5-.06,1.57.93,2.57,2.77,2.42,4.4Z"/>
      </g>
    </g>
  </g>
</svg>