<?xml version="1.0" encoding="UTF-8"?>
<svg id="Layer_2" data-name="Layer 2" xmlns="http://www.w3.org/2000/svg" viewBox="0 0 64.88 90.57">
  <defs>
    <style>
      .cls-1 {
        fill: none;
        stroke: #1d1d1b;
        stroke-linecap: round;
        stroke-linejoin: round;
        stroke-width: 3.42px;
      }

      .cls-2 {
        fill: #ffb600;
      }

      .cls-3 {
        fill: #1d1d1b;
      }
    </style>
  </defs>
  <g id="Layer_1-2" data-name="Layer 1">
    <g>
      <path class="cls-3" d="M2.29,13.1c-2.55,0-2.93-3.68-.43-4.19L44.02,.13c3.49-.72,6.85,1.55,6.85,4.63V22.51c0,1.17-.95,2.12-2.12,2.12L2.29,13.1Z"/>
      <g>
        <path class="cls-2" d="M2.12,88.86c-.23,0-.41-.18-.41-.41V11.32c0-.23,.18-.41,.41-.41H52.18c6.06,0,10.99,4.93,10.99,10.99v55.98c0,6.06-4.93,10.99-10.99,10.99H2.12Z"/>
        <path class="cls-3" d="M52.18,12.61c5.12,0,9.28,4.16,9.28,9.28v55.98c0,5.12-4.16,9.28-9.28,9.28H3.42V12.61H52.18m0-3.42H2.12c-1.17,0-2.12,.95-2.12,2.12V88.45c0,1.17,.95,2.12,2.12,2.12H52.18c7.01,0,12.7-5.68,12.7-12.7V21.89c0-7.01-5.68-12.7-12.7-12.7h0Z"/>
      </g>
      <g>
        <line class="cls-1" x1="14.88" y1="38.49" x2="50" y2="38.49"/>
        <line class="cls-1" x1="14.88" y1="49.88" x2="50" y2="49.88"/>
        <line class="cls-1" x1="14.88" y1="61.27" x2="50" y2="61.27"/>
      </g>
    </g>
  </g>
</svg>