<?xml version="1.0" encoding="UTF-8"?>
<svg id="Layer_2" data-name="Layer 2" xmlns="http://www.w3.org/2000/svg" viewBox="0 0 52 41.7">
  <defs>
    <style>
      .cls-1 {
        fill: #fab41e;
      }
    </style>
  </defs>
  <g id="Layer_2-2" data-name="Layer 2">
    <g id="yS2XcI">
      <path class="cls-1" d="m3.9,41.7c-1.03-.58-1.39-1.44-1.38-2.63.05-4.81.03-9.63.01-14.44,0-1.27.35-2.45.68-3.64-1.03-.43-2.31.38-3.2-.83-.05-1.31.44-2.54,1.22-3.64.45-.64,1.2-.82,1.97-.86.6-.03,1.2.08,1.9-.12.7-1.93,1.41-3.92,2.13-5.9.49-1.34,1.03-2.67,1.49-4.02.6-1.79,1.84-2.91,3.52-3.7,2.09-.98,4.3-1.41,6.56-1.59C22.02.07,25.26-.09,28.5.06c2.72.12,5.46.19,8.13.78,1.31.29,2.58.72,3.77,1.35,1.19.63,2.06,1.51,2.53,2.81,1.14,3.12,2.32,6.23,3.48,9.34.14.39.28.77.4,1.12.58.34,1.15.18,1.69.2,1.62.06,2.36.54,2.91,2.07.29.81.82,1.59.49,2.54-.82,1.1-2.1.32-3.17.75.83,1.92.72,3.96.71,5.99,0,4.03-.03,8.05.02,12.08.02,1.19-.36,2.05-1.38,2.63h-7.78c-1.03-.6-1.33-1.53-1.29-2.68.03-.81.11-1.64-.08-2.43-1.86-.28-24.97-.2-25.98.11,0,.8-.02,1.63,0,2.46.04,1.09-.32,1.97-1.28,2.54H3.9Zm38.92-25.39c-.01-.23,0-.37-.04-.5-.78-3.19-1.91-6.26-3.07-9.32-.21-.56-.62-.92-1.15-1.14-.55-.23-1.12-.44-1.7-.59-2.07-.54-4.19-.74-6.31-.82-3.14-.12-6.29-.13-9.44,0-2.17.09-4.33.31-6.45.85-1.32.33-2.27,1.01-2.77,2.41-.94,2.61-1.88,5.21-2.56,7.89-.1.4-.24.79-.17,1.2,6.59,2.59,26.22,2.73,33.63.02Zm-31.6,12.52c.92,0,1.86.08,2.77-.02,1.05-.11,1.5-.54,1.61-1.25.14-.88-.35-1.39-1.03-1.78-.16-.09-.32-.19-.48-.27-1.72-.79-3.44-1.57-5.24-2.17-.68-.23-1.36-.29-2.05-.28-.99.02-1.43.38-1.62,1.36-.1.54-.09,1.1-.09,1.66,0,1.63.49,2.21,2.12,2.55,1.32.27,2.66.29,4,.2Zm29.25.05c1.04,0,1.73.03,2.42,0,.97-.05,1.93-.19,2.84-.56.65-.26,1.09-.73,1.13-1.44.05-.83.11-1.66-.09-2.48-.22-.91-.59-1.24-1.54-1.29-.69-.04-1.36.02-2.05.23-1.9.6-3.69,1.44-5.48,2.28-.33.15-.63.39-.91.62-.47.41-.53.96-.38,1.53.14.56.57.77,1.09.93,1.09.34,2.21.12,2.96.19Z"/>
    </g>
  </g>
</svg>