<?xml version="1.0" encoding="UTF-8"?>
<svg id="Layer_2" data-name="Layer 2" xmlns="http://www.w3.org/2000/svg" viewBox="0 0 90.57 90.57">
  <defs>
    <style>
      .cls-1 {
        fill: #ffb600;
      }

      .cls-2 {
        fill: #1d1d1b;
      }

      .cls-3 {
        fill: none;
        stroke: #1d1d1b;
        stroke-linecap: round;
        stroke-linejoin: round;
        stroke-width: 6px;
      }
    </style>
  </defs>
  <g id="Layer_1-2" data-name="Layer 1">
    <g>
      <g>
        <path class="cls-1" d="M45.28,88.86C21.26,88.86,1.71,69.31,1.71,45.28S21.26,1.71,45.28,1.71s43.58,19.55,43.58,43.58-19.55,43.58-43.58,43.58Z"/>
        <path class="cls-2" d="M45.28,3.42c23.09,0,41.87,18.78,41.87,41.87s-18.78,41.87-41.87,41.87S3.42,68.37,3.42,45.28,22.2,3.42,45.28,3.42m0-3.42C20.27,0,0,20.27,0,45.28s20.27,45.28,45.28,45.28,45.28-20.27,45.28-45.28S70.29,0,45.28,0h0Z"/>
      </g>
      <circle class="cls-2" cx="45.28" cy="45.28" r="5.03"/>
      <path class="cls-3" d="M45.28,12.77v31.63c0,.56,.22,1.1,.62,1.5l16.42,16.42"/>
    </g>
  </g>
</svg>