<?xml version="1.0" encoding="UTF-8"?>
<svg id="Layer_2" data-name="Layer 2" xmlns="http://www.w3.org/2000/svg" viewBox="0 0 56.56 46.61">
  <defs>
    <style>
      .cls-1 {
        fill: #fab41e;
      }
    </style>
  </defs>
  <g id="Layer_2-2" data-name="Layer 2">
    <g id="re4nw7">
      <path class="cls-1" d="m0,12.24c.14-.05.15-.2.22-.3.46-.62,1.31-.66,1.8-.07.16.2.29.43.42.65,1.93,3.16,4.72,5.03,8.38,5.6,1.17.18,2.35.09,3.53.05,1.01-.04,2.02-.11,3.03-.16,2.83-.13,5.66-.25,8.5-.38,3.02-.14,6.03-.28,9.05-.43.07,0,.14-.02.21-.03.14-.15.17-.34.23-.51,1.87-5.17,3.75-10.33,5.62-15.5.08-.21.15-.42.26-.61.22-.38.57-.59,1.01-.57.45.02.83.23,1,.67.15.39.27.8.38,1.21.16.55.31,1.09.48,1.67.19-.05.26-.2.37-.31.3-.32.6-.65.89-.98.36-.39.8-.53,1.3-.35.48.17.71.55.75,1.06.06.81.14,1.61.21,2.42.02.2,0,.41.12.62,1.61.52,2.66,1.62,3.07,3.28.18.16.4.21.6.29,1.31.53,2.63,1.06,3.94,1.58.15.06.31.12.46.2.72.36.93.99.57,1.7-.18.34-.36.69-.59,1-1.97,2.76-4.63,4.17-8.06,4.04-.26,0-.5-.12-.75-.07-.13.07-.12.19-.14.3-.84,3.88-1.69,7.76-2.53,11.64-.08.38-.19.75-.31,1.11-.26.77-.67,1.43-1.31,1.91-.1.21-.06.42-.06.62,0,3.77,0,7.55,0,11.32,0,.17,0,.33,0,.5-.08.73-.49,1.13-1.22,1.17-.35.02-.7.02-1.05,0-.71-.04-1.12-.4-1.23-1.1-.23-1.4-.44-2.8-.66-4.2-.31-1.98-.62-3.96-.93-5.94-.1-.64-.2-1.27-.31-1.95-5.38-.92-10.75-1.84-16.13-2.75-.16.25-.29.47-.44.68-.56.81-1.24,1.5-2.02,2.09-2.89,2.16-5.77,4.33-8.66,6.49-.15.11-.29.22-.47.36.1.54.19,1.08.29,1.62.19,1.07.4,2.13.58,3.2.15.89-.33,1.48-1.23,1.5-.39.01-.77.01-1.16,0-.79-.02-1.2-.36-1.34-1.12-.34-1.81-.67-3.62-1-5.42-.12-.63-.22-1.27-.35-1.9-.1-.5.02-.93.32-1.34.96-1.28,1.9-2.58,2.85-3.87.06-.09.12-.18.18-.27-.03-.29-.18-.53-.3-.77-.67-1.45-1.11-2.97-1.24-4.55-.21-2.51.35-4.82,1.84-6.88.05-.07.12-.14.12-.28-.14-.12-.34-.14-.53-.2-2.66-.77-4.87-2.23-6.67-4.31-.71-.82-1.33-1.72-1.79-2.71-.01-.03-.05-.04-.08-.06,0-.22,0-.44,0-.66Z"/>
    </g>
  </g>
</svg>